<?xml version="1.0" encoding="UTF-8" standalone="no"?>
<svg
   width="24"
   height="24"
   viewBox="0 0 24 24"
   fill="none"
   stroke="currentColor"
   stroke-width="2"
   stroke-linecap="round"
   stroke-linejoin="round"
   class="icon icon-tabler icons-tabler-outline icon-tabler-brand-github"
   version="1.1"
   id="svg2"
   sodipodi:docname="IconYoutube.svg"
   inkscape:version="1.4 (86a8ad7, 2024-10-11)"
   xmlns:inkscape="http://www.inkscape.org/namespaces/inkscape"
   xmlns:sodipodi="http://sodipodi.sourceforge.net/DTD/sodipodi-0.dtd"
   xmlns="http://www.w3.org/2000/svg"
   xmlns:svg="http://www.w3.org/2000/svg">
  <defs
     id="defs2" />
  <sodipodi:namedview
     id="namedview2"
     pagecolor="#ffffff"
     bordercolor="#000000"
     borderopacity="0.25"
     inkscape:showpageshadow="2"
     inkscape:pageopacity="0.0"
     inkscape:pagecheckerboard="0"
     inkscape:deskcolor="#d1d1d1"
     showgrid="false"
     inkscape:zoom="34.383067"
     inkscape:cx="11.473671"
     inkscape:cy="13.538641"
     inkscape:window-width="2560"
     inkscape:window-height="1369"
     inkscape:window-x="1912"
     inkscape:window-y="-8"
     inkscape:window-maximized="1"
     inkscape:current-layer="svg2" />
  <path
     stroke="none"
     d="M 0,0 H 24 V 24 H 0 Z"
     fill="none"
     id="path1"
     style="display:inline;stroke:none;stroke-opacity:1" />
  <path
     fill-rule="evenodd"
     clip-rule="evenodd"
     d="m 17.444308,18.597358 c 2.207843,0.07893 4.064257,-1.611206 4.150485,-3.778736 V 9.2065089 c -0.08623,-2.167463 -1.942642,-3.85765 -4.150485,-3.778736 H 6.5832957 c -2.2078155,-0.07891 -4.0642759,1.611273 -4.150486,3.778736 v 5.6121131 c 0.086205,2.16753 1.9426705,3.85766 4.150486,3.778736 z"
     stroke-width="1.42403"
     stroke-linecap="round"
     stroke-linejoin="round"
     id="path1-0"
     style="fill-rule:nonzero" />
  <path
     fill-rule="evenodd"
     clip-rule="evenodd"
     d="m 11.542416,9.3551569 3.028552,2.0205541 c 0.196218,0.112506 0.316844,0.318798 0.316844,0.541835 0,0.223131 -0.120626,0.429423 -0.316844,0.541835 l -3.028552,2.210614 c -0.574858,0.382857 -1.444812,0.05644 -1.444812,-0.541837 V 9.8951096 c 0,-0.5954537 0.870912,-0.9228127 1.444812,-0.5399527 z"
     stroke-width="1.42403"
     stroke-linecap="round"
     stroke-linejoin="round"
     id="path2-9"
     style="fill-rule:nonzero" />
</svg>
