<?xml version="1.0" encoding="UTF-8" standalone="no"?>
<svg
   width="24"
   height="24"
   viewBox="0 0 24 24"
   fill="none"
   stroke="currentColor"
   stroke-width="2"
   stroke-linecap="round"
   stroke-linejoin="round"
   class="icon icon-tabler icons-tabler-outline icon-tabler-brand-github"
   version="1.1"
   id="svg2"
   sodipodi:docname="IconReddit.svg"
   inkscape:version="1.4 (86a8ad7, 2024-10-11)"
   xmlns:inkscape="http://www.inkscape.org/namespaces/inkscape"
   xmlns:sodipodi="http://sodipodi.sourceforge.net/DTD/sodipodi-0.dtd"
   xmlns="http://www.w3.org/2000/svg"
   xmlns:svg="http://www.w3.org/2000/svg">
  <defs
     id="defs2">
    <inkscape:path-effect
       effect="fillet_chamfer"
       id="path-effect5"
       is_visible="true"
       lpeversion="1"
       nodesatellites_param="F,0,0,1,0,0,0,1 @ F,0,0,1,0,0.4,0,1 @ F,0,0,1,0,0.4,0,1 @ F,0,0,1,0,0.4,0,1 @ F,0,0,1,0,0.4,0,1 @ F,0,0,1,0,0.4,0,1 @ F,0,0,1,0,0.4,0,1"
       radius="1.4"
       unit="px"
       method="auto"
       mode="F"
       chamfer_steps="1"
       flexible="false"
       use_knot_distance="true"
       apply_no_radius="true"
       apply_with_radius="true"
       only_selected="false"
       hide_knots="false" />
    <inkscape:path-effect
       effect="simplify"
       id="path-effect4"
       is_visible="false"
       lpeversion="1.3"
       threshold="5"
       steps="1"
       smooth_angles="360"
       helper_size="10"
       simplify_individual_paths="false"
       simplify_just_coalesce="false" />
  </defs>
  <sodipodi:namedview
     id="namedview2"
     pagecolor="#ffffff"
     bordercolor="#000000"
     borderopacity="0.25"
     inkscape:showpageshadow="2"
     inkscape:pageopacity="0.0"
     inkscape:pagecheckerboard="0"
     inkscape:deskcolor="#d1d1d1"
     showgrid="false"
     inkscape:zoom="8.5957668"
     inkscape:cx="-62.879789"
     inkscape:cy="0.1745045"
     inkscape:window-width="2560"
     inkscape:window-height="1369"
     inkscape:window-x="1912"
     inkscape:window-y="-8"
     inkscape:window-maximized="1"
     inkscape:current-layer="svg2" />
  <path
     stroke="none"
     d="M 0,0 H 24 V 24 H 0 Z"
     fill="none"
     id="path1"
     style="display:inline;stroke:none;stroke-opacity:1" />
  <g
     inkscape:groupmode="layer"
     id="layer1"
     inkscape:label="Layer 1">
    <path
       d="m 3.8681831,13.974902 c 0,0 -2.1549914,-1.031783 -1.117934,-3.058219 0.1004783,-0.196337 0.3251373,-0.476885 0.5051984,-0.604216 0.4674006,-0.3305246 1.4383699,-0.7609471 2.6561297,0.112452 0.1792772,0.128581 0.455148,0.140381 0.6404156,0.02014 1.2090251,-0.7846973 5.6272652,-3.146518 11.0238182,0.06357 0.189396,0.112661 0.457123,0.07195 0.625226,-0.07113 0.524416,-0.4463516 1.698553,-1.1352123 2.90056,0.256356 0.144169,0.166905 0.320959,0.479034 0.370618,0.693926 0.122601,0.53054 0.160141,1.514164 -0.905651,2.273362 -0.17969,0.127999 -0.30992,0.389177 -0.29678,0.6096 0.08472,1.421176 -0.208503,6.203897 -7.859664,6.941005 -0.219817,0.02118 -0.577366,0.02535 -0.797273,0.0043 C 9.8808944,21.050233 3.1322263,20.014824 3.8681831,13.974902 Z"
       id="path4"
       style="stroke-width:2;stroke-dasharray:none"
       sodipodi:nodetypes="cccccccc"
       inkscape:path-effect="#path-effect5"
       inkscape:original-d="m 3.8681831,13.974902 c 0,0 -2.3994369,-1.148821 -0.9161486,-3.402838 0,0 1.381494,-1.5559981 3.2719594,0.101795 0,0 5.1769671,-4.0863141 11.6918011,0.04363 0,0 1.730503,-2.0940582 3.431922,0.290837 0,0 0.857981,1.774129 -1.119737,2.864782 0,0 1.221532,6.660255 -8.216253,7.372815 0,0 -8.9869823,-0.349009 -8.1435439,-7.271021 z" />
    <path
       stroke-linecap="round"
       stroke-width="12"
       d="m 120,138.001 c 0,0 -8,6 -24,6 -16,0 -24,-6 -24,-6"
       id="path6"
       style="fill:none;display:inline;stroke-width:15.54228227;stroke-dasharray:none"
       transform="matrix(0.12868123,0,0,0.12868123,-0.34598677,-0.4061054)" />
    <path
       d="m 8.3376235,13.708191 0.1032562,0.06808"
       id="path5"
       style="display:inline;stroke-width:2.9839" />
    <path
       d="m 12.07198,8.6169666 1.233933,-5.4293059 3.678133,0.7355839"
       id="path8"
       sodipodi:nodetypes="ccc" />
    <path
       d="M 18.361914,4.1337625 18.56228,4.2658643"
       id="path9"
       style="display:inline;stroke-width:4.50613" />
    <path
       d="m 15.552355,13.708191 0.103257,0.06808"
       id="path10"
       style="display:inline;stroke-width:2.9839" />
  </g>
</svg>
