<?xml version="1.0" encoding="UTF-8" standalone="no"?>
<svg
   width="24"
   height="24"
   viewBox="0 0 24 24"
   fill="none"
   stroke="currentColor"
   stroke-width="2"
   stroke-linecap="round"
   stroke-linejoin="round"
   class="icon icon-tabler icons-tabler-outline icon-tabler-brand-github"
   version="1.1"
   id="svg2"
   sodipodi:docname="IconReddit.svg"
   inkscape:version="1.4 (86a8ad7, 2024-10-11)"
   xmlns:inkscape="http://www.inkscape.org/namespaces/inkscape"
   xmlns:sodipodi="http://sodipodi.sourceforge.net/DTD/sodipodi-0.dtd"
   xmlns="http://www.w3.org/2000/svg"
   xmlns:svg="http://www.w3.org/2000/svg">
  <defs
     id="defs2" />
  <sodipodi:namedview
     id="namedview2"
     pagecolor="#ffffff"
     bordercolor="#000000"
     borderopacity="0.25"
     inkscape:showpageshadow="2"
     inkscape:pageopacity="0.0"
     inkscape:pagecheckerboard="0"
     inkscape:deskcolor="#d1d1d1"
     showgrid="false"
     inkscape:zoom="34.383067"
     inkscape:cx="11.473671"
     inkscape:cy="13.538641"
     inkscape:window-width="2560"
     inkscape:window-height="1369"
     inkscape:window-x="1912"
     inkscape:window-y="-8"
     inkscape:window-maximized="1"
     inkscape:current-layer="svg2" />
  <path
     stroke="none"
     d="M 0,0 H 24 V 24 H 0 Z"
     fill="none"
     id="path1"
     style="display:inline;stroke:none;stroke-opacity:1" />
  <g
     style="fill:none"
     id="g12"
     transform="matrix(0.12868123,0,0,0.12868123,-0.34598677,-0.4061054)">
    <path
       fill="#000000"
       d="m 33.067,111.226 5.826,1.435 a 6,6 0 0 0 -3.978,-7.143 z m 17.548,-25.068 -4.728,3.694 a 6,6 0 0 0 8.341,1.096 z m 90.77,0 -3.613,4.79 a 6,6 0 0 0 8.341,-1.096 z m 17.548,25.068 -1.848,-5.708 a 6,6 0 0 0 -3.978,7.143 z M 96,174.001 c 18.846,0 36.138,-5.722 48.855,-15.259 C 157.573,149.203 166,135.568 166,120.001 h -12 c 0,10.943 -5.9,21.307 -16.345,29.141 C 127.208,156.977 112.5,162.001 96,162.001 Z m -70,-54 c 0,15.567 8.427,29.202 21.145,38.741 12.717,9.537 30.01,15.259 48.855,15.259 v -12 c -16.5,0 -31.208,-5.024 -41.655,-12.859 C 43.9,141.308 38,130.944 38,120.001 Z m 1.241,-10.21 A 42.616,42.616 0 0 0 26,120.001 h 12 c 0,-2.505 0.306,-4.956 0.893,-7.34 z M 16,96.001 c 0,9.793 6.394,18.076 15.219,20.933 l 3.696,-11.416 A 10.007,10.007 0 0 1 28,96.001 Z m 22,-22 c -12.15,0 -22,9.85 -22,22 h 12 c 0,-5.523 4.477,-10 10,-10 z m 17.343,8.463 C 51.326,77.324 45.049,74 38,74 v 12 c 3.2,0 6.047,1.496 7.887,3.851 l 9.456,-7.388 z M 96,66 C 77.084,66 59.732,71.764 47.002,81.367 l 7.226,9.58 C 64.682,83.063 79.438,78 96,78 Z m 48.998,15.367 C 132.268,71.765 114.916,66 96,66 v 12 c 16.563,0 31.318,5.062 41.772,12.947 z m 1.115,8.484 A 9.972,9.972 0 0 1 154,86.001 v -12 c -7.05,0 -13.326,3.322 -17.343,8.463 l 9.456,7.388 z M 154,86.001 c 5.523,0 10,4.477 10,10 h 12 c 0,-12.15 -9.85,-22 -22,-22 z m 10,10 c 0,4.438 -2.895,8.215 -6.915,9.517 l 3.696,11.416 C 169.606,114.077 176,105.794 176,96.001 Z m 2,24 a 42.63,42.63 0 0 0 -1.241,-10.21 l -11.652,2.87 c 0.587,2.384 0.893,4.835 0.893,7.34 z"
       id="path1-09" />
    <circle
       cx="68"
       cy="110.001"
       r="12"
       fill="#000000"
       id="circle1" />
    <circle
       cx="124"
       cy="110.001"
       r="12"
       fill="#000000"
       id="circle2" />
    <path
       stroke-linecap="round"
       stroke-width="12"
       d="m 120,138.001 c 0,0 -8,6 -24,6 -16,0 -24,-6 -24,-6"
       id="path2" />
    <circle
       cx="146"
       cy="36.000999"
       r="12"
       stroke-width="12"
       id="circle3" />
    <path
       fill="#000000"
       fill-rule="evenodd"
       d="m 107.177,22.118 a 6,6 0 0 0 -7.028,4.553 l -10,44 a 6.0002584,6.0002584 0 1 0 11.702,2.66 l 8.704,-38.3 24.074,4.815 A 11.985,11.985 0 0 1 134,36 c 0,-3.036 1.127,-5.808 2.986,-7.922 l -29.809,-5.961 z"
       clip-rule="evenodd"
       id="path3" />
  </g>
</svg>
