<?xml version="1.0" encoding="UTF-8" standalone="no"?>
<svg
   width="24"
   height="24"
   viewBox="0 0 24 24"
   fill="none"
   stroke="currentColor"
   stroke-width="2"
   stroke-linecap="round"
   stroke-linejoin="round"
   class="icon icon-tabler icons-tabler-outline icon-tabler-calendar-week"
   version="1.1"
   id="svg12"
   sodipodi:docname="IconYoutube.svg"
   inkscape:version="1.4 (86a8ad7, 2024-10-11)"
   xmlns:inkscape="http://www.inkscape.org/namespaces/inkscape"
   xmlns:sodipodi="http://sodipodi.sourceforge.net/DTD/sodipodi-0.dtd"
   xmlns="http://www.w3.org/2000/svg"
   xmlns:svg="http://www.w3.org/2000/svg">
  <defs
     id="defs12" />
  <sodipodi:namedview
     id="namedview12"
     pagecolor="#ffffff"
     bordercolor="#000000"
     borderopacity="0.25"
     inkscape:showpageshadow="2"
     inkscape:pageopacity="0.0"
     inkscape:pagecheckerboard="0"
     inkscape:deskcolor="#d1d1d1"
     inkscape:zoom="24.3125"
     inkscape:cx="23.506427"
     inkscape:cy="7.6709512"
     inkscape:window-width="2560"
     inkscape:window-height="1369"
     inkscape:window-x="1912"
     inkscape:window-y="-8"
     inkscape:window-maximized="1"
     inkscape:current-layer="svg12" />
  <path
     fill-rule="evenodd"
     clip-rule="evenodd"
     d="m 17.627665,18.816617 c 2.285825,0.08171 4.207808,-1.668115 4.297082,-3.912202 V 9.0940782 C 21.835473,6.8500599 19.91349,5.1001749 17.627665,5.1818762 H 6.3830408 C 4.0972453,5.1001749 2.1752138,6.8500599 2.0859592,9.0940782 v 5.8103368 c 0.089254,2.244087 2.0112861,3.993913 4.2970816,3.912202 z"
     stroke="#000000"
     stroke-width="1.47433"
     stroke-linecap="round"
     stroke-linejoin="round"
     id="path1-0"
     style="stroke-width:2;stroke-dasharray:none" />
  <path
     fill-rule="evenodd"
     clip-rule="evenodd"
     d="m 11.517318,9.2479764 3.135521,2.0919226 c 0.203148,0.11648 0.328035,0.330058 0.328035,0.560973 0,0.231012 -0.124887,0.44459 -0.328035,0.560973 l -3.135521,2.288693 c -0.595162,0.39638 -1.495843,0.05843 -1.495843,-0.560974 V 9.8070007 c 0,-0.6164855 0.901673,-0.9554066 1.495843,-0.5590243 z"
     stroke="#000000"
     stroke-width="1.47433"
     stroke-linecap="round"
     stroke-linejoin="round"
     id="path2-9"
     style="stroke-width:2;stroke-dasharray:none" />
</svg>
